HIERARCHY
ROOT Hips
{
  OFFSET -257.012 47.8715 -239.378
  CHANNELS 6 Xposition Yposition Zposition Zrotation Xrotation Yrotation
  JOINT ToSpine
  {
    OFFSET -0.0105055 1.38907 -7.13956
    CHANNELS 3 Zrotation Xrotation Yrotation
    JOINT Spine
    {
      OFFSET 0.0105055 10 1
      CHANNELS 3 Zrotation Xrotation Yrotation
      JOINT Spine1
      {
        OFFSET 0 12 1.60637
        CHANNELS 3 Zrotation Xrotation Yrotation
        JOINT Neck
        {
          OFFSET 0 27 2.26658
          CHANNELS 3 Zrotation Xrotation Yrotation
          JOINT Head
          {
            OFFSET 0 9 2.12705
            CHANNELS 3 Zrotation Xrotation Yrotation
            End Site
            {
              OFFSET 0 11 2
            }
          }
        }
        JOINT LeftShoulder
        {
          OFFSET 8 19.6109 2.86452
          CHANNELS 3 Zrotation Xrotation Yrotation
          JOINT LeftArm
          {
            OFFSET 12 1 0.681055
            CHANNELS 3 Zrotation Xrotation Yrotation
            JOINT LeftForeArm
            {
              OFFSET 19 0 -1.52608
              CHANNELS 3 Zrotation Xrotation Yrotation
              JOINT LeftHand
              {
                OFFSET 23 0 0
                CHANNELS 3 Zrotation Xrotation Yrotation
                End Site
                {
                  OFFSET 10 0 0
                }
              }
            }
          }
        }
        JOINT RightShoulder
        {
          OFFSET -8 19.6109 2.86452
          CHANNELS 3 Zrotation Xrotation Yrotation
          JOINT RightArm
          {
            OFFSET -12 1 0.681055
            CHANNELS 3 Zrotation Xrotation Yrotation
            JOINT RightForeArm
            {
              OFFSET -19 0 -1.52608
              CHANNELS 3 Zrotation Xrotation Yrotation
              JOINT RightHand
              {
                OFFSET -23 0 0
                CHANNELS 3 Zrotation Xrotation Yrotation
                End Site
                {
                  OFFSET -10 0 0
                }
              }
            }
          }
        }
      }
    }
  }
  JOINT LeftUpLeg
  {
    OFFSET 9 -7.17245 0
    CHANNELS 3 Zrotation Xrotation Yrotation
    JOINT LeftLeg
    {
      OFFSET 0 -44.1113 0
      CHANNELS 3 Zrotation Xrotation Yrotation
      JOINT LeftFoot
      {
        OFFSET 0 -36.1829 0
        CHANNELS 3 Zrotation Xrotation Yrotation
        JOINT LeftToeBase
        {
          OFFSET 0 -4.84184 13
          CHANNELS 3 Zrotation Xrotation Yrotation
          End Site
          {
            OFFSET 0 1 6
          }
        }
      }
    }
  }
  JOINT RightUpLeg
  {
    OFFSET -9 -7.17245 0
    CHANNELS 3 Zrotation Xrotation Yrotation
    JOINT RightLeg
    {
      OFFSET 0 -44.0551 0
      CHANNELS 3 Zrotation Xrotation Yrotation
      JOINT RightFoot
      {
        OFFSET 0 -36.1469 0
        CHANNELS 3 Zrotation Xrotation Yrotation
        JOINT RightToeBase
        {
          OFFSET 0 -4.92256 13
          CHANNELS 3 Zrotation Xrotation Yrotation
          End Site
          {
            OFFSET 0 1 6
          }
        }
      }
    }
  }
}
MOTION
Frames:	14
Frame Time:	0.0333333
-257.012 47.8715 -239.378 -15.6442 24.5442 41.7464 0 0 0 -1.04691 42.1744 1.36966 -3.69624 -2.1691 2.23818 5.58239 -22.3671 -4.80418 0.099644 -5.9407 -3.95869 -9.48282 3.74653 -18.4521 -9.0294 12.8674 -83.2938 -15.3033 22.4201 4.83405 1.47853 0.0684648 5.30219 37.3504 14.737 29.6163 -32.8252 18.6288 63.3517 12.2297 10.4499 -3.38485 -8.17346 -0.203872 2.85284 114.384 -52.3384 118.701 180 52.3295 166.076 18.5303 -37.2668 6.29683 1.55633 -21.1554 -1.97926 -124.544 -53.2851 -125.835 -180 50.7344 -176.941 -21.4159 -36.8464 -7.20845 4.69297 -18.2734 -6.29112 
-257.077 47.8438 -239.177 -14.7599 24.4197 40.4401 0 0 0 -2.37987 42.6795 2.23701 -3.98547 -1.97672 2.7026 6.23017 -22.5579 -4.38746 -0.913928 -5.26397 -3.32712 -9.02004 3.66267 -18.5008 -10.2665 12.691 -83.4194 -15.3054 23.8975 4.88779 1.4707 0.0761007 5.92389 37.5009 14.7346 29.499 -31.8621 18.2442 62.9925 11.9871 11.1319 -3.3992 -7.89033 -0.20568 2.98171 111.911 -51.4024 116.364 -180 52.1086 165.5 18.8239 -37.6979 6.47764 1.54614 -21.0371 -1.9121 -125.141 -54.4095 -126.045 180 50.5703 -177.127 -21.4751 -36.9092 -7.24201 4.79367 -18.7408 -6.34519 
-256.79 47.8097 -239.196 -16.2012 24.0408 42.0919 0 0 0 0.279629 42.129 0.843788 -4.13851 -2.09022 2.24509 6.31828 -21.9472 -4.03973 -1.16301 -5.25333 -2.91864 -9.32376 3.732 -18.5511 -10.4662 12.8489 -83.0319 -15.2221 24.0257 4.89267 2.30338 0.151309 7.5157 37.8835 14.8912 29.5494 -33.3277 19.0341 63.2414 12.0213 9.98003 -3.09244 -8.19143 -0.219279 3.06158 114.854 -52.2561 118.405 180 52.011 165.922 18.7676 -37.6148 6.44271 1.56542 -21.2834 -2.0184 -122.845 -53.2418 -124.972 -180 50.5938 -176.975 -22.0197 -37.3629 -7.52749 4.79642 -18.6736 -5.95788 
-256.73 47.9098 -239.154 -16.6488 23.7789 42.3565 0 0 0 0.994728 42.2147 0.585407 -4.17179 -2.0594 2.24192 6.03606 -21.5207 -3.59782 -0.931564 -5.64857 -2.56067 -8.9332 3.68353 -18.7257 -11.0896 12.9583 -82.7494 -14.9819 24.0909 4.89516 1.88949 0.0941386 5.70399 37.5734 14.7474 29.4725 -31.1587 18.1343 62.9585 11.9729 11.9228 -3.47904 -8.04803 -0.196019 2.78587 115.489 -52.4013 118.514 -180 52.093 166.012 18.7662 -37.5315 6.42688 1.55921 -21.3461 -1.83419 -122.043 -53.4136 -124.684 -180 50.7347 -177.274 -22.1811 -37.3309 -7.57694 4.77815 -18.611 -6.05235 
-256.694 48.0292 -238.989 -16.6856 23.5365 42.2581 0 0 0 1.12669 42.4884 0.694209 -4.14992 -1.67867 2.37179 6.05286 -22.1287 -3.49989 -0.93395 -5.46869 -2.49318 -9.43405 3.7366 -18.4509 -9.28718 12.8556 -83.1948 -15.1737 21.4137 4.79992 3.69969 0.232952 7.2033 37.5681 14.6602 29.2899 -31.6288 17.8384 63.4202 12.2797 11.5884 -3.72826 -8.28684 -0.203025 2.802 115.009 -52.4079 117.624 -180 52.1696 165.834 18.5898 -37.9704 6.44551 1.54536 -21.0578 -1.87699 -121.829 -54.3041 -124.027 180 50.6215 -177.819 -20.8139 -38.4536 -7.32997 4.67044 -18.1142 -5.97767 
-256.663 48.1812 -238.923 -16.8279 23.395 42.2293 0 0 0 1.25474 42.9448 0.608205 -4.12299 -1.97173 2.36673 5.7403 -22.0514 -3.31747 -0.54574 -5.63935 -2.42127 -9.39469 3.7073 -18.3275 -9.59648 12.9413 -83.0372 -15.0661 21.1969 4.79283 4.14792 0.251829 6.94556 37.4456 14.6651 29.3911 -32.3115 17.9465 64.105 12.8285 11.1129 -4.22083 -8.23017 -0.210121 2.91993 114.921 -52.5008 117.208 -180 52.2979 165.845 18.281 -38.2131 6.3804 1.53504 -20.7533 -1.99175 -121.223 -54.5688 -123.893 180 50.9515 -177.802 -21.6201 -37.7974 -7.48013 4.9964 -19.6928 -6.48483 
-256.624 48.3185 -238.874 -16.832 23.219 42.0903 0 0 0 1.52923 43.4704 0.565284 -4.47631 -2.12108 2.502 5.91183 -22.5525 -3.30396 -0.701389 -5.57878 -2.38657 -9.41521 3.69113 -18.2112 -9.50335 12.8357 -83.3579 -15.1665 21.574 4.80523 4.08832 0.246101 6.88675 37.7211 14.7264 29.3186 -33.7422 18.5557 64.0123 12.3131 9.9943 -3.40593 -8.37076 -0.188685 2.57797 114.554 -52.5253 116.635 180 52.392 165.885 18.4183 -38.0877 6.40634 1.54847 -21.0432 -1.9482 -120.607 -54.8402 -123.497 180 51.1066 -177.803 -21.6983 -38.0438 -7.56031 4.65523 -17.8521 -4.82512 
-256.563 48.4392 -238.797 -16.8093 22.9059 42.003 0 0 0 1.47612 43.868 0.689831 -4.05933 -2.01216 2.50517 5.40154 -22.3429 -3.2728 -0.403169 -6.07784 -2.45545 -10.2583 3.82784 -18.0485 -8.57801 12.6908 -83.2534 -15.1397 21.3736 4.79861 3.75967 0.240325 7.31236 37.5277 14.711 29.4286 -32.9933 18.3138 63.6186 12.1648 10.8868 -3.42051 -8.40173 -0.229871 3.12883 114.064 -52.5802 115.818 -180 52.4345 165.749 18.1641 -38.4762 6.38597 1.53893 -20.6339 -2.16841 -119.697 -55.1458 -122.811 -180 51.2463 -177.797 -21.6204 -38.1217 -7.54917 4.90147 -19.2094 -6.25892 
-256.536 48.5641 -238.774 -16.8723 22.4706 42.0061 0 0 0 2.10072 44.5251 0.340888 -4.49153 -2.2451 2.48991 6.13397 -22.1893 -3.15818 -0.869572 -7.10211 -2.19995 -9.49724 3.67763 -18.0414 -9.341 12.7801 -82.9802 -14.8637 21.6649 4.81425 3.66299 0.229998 7.18331 37.6032 14.7319 29.4174 -32.9593 18.5749 63.4306 11.5353 10.4523 -2.58057 -8.42737 -0.206565 2.80315 113.813 -52.6246 115.203 -180 52.5183 165.583 18.2598 -38.4466 6.4148 1.53021 -20.7039 -1.95504 -118.402 -55.3278 -121.979 180 51.374 -177.493 -21.8224 -38.2456 -7.64786 4.9386 -19.8781 -8.22468 
-256.479 48.6665 -238.709 -16.6677 22.0567 41.7655 0 0 0 2.22352 45.3886 0.312112 -4.51463 -2.54788 2.52599 5.64723 -22.2729 -3.16619 -0.427133 -8.62164 -2.34633 -9.63138 3.70329 -18.0382 -8.69187 12.9941 -82.713 -14.65 20.9322 4.65248 3.80477 0.236562 7.11298 37.4448 14.6887 29.4423 -33.2883 18.6521 64.0323 12.0574 10.3593 -3.16764 -8.62516 -0.227401 3.01479 112.965 -52.6643 114.072 -180 52.5146 165.572 18.5106 -38.5675 6.52626 1.54313 -21.0027 -1.89205 -117.448 -55.8608 -121.047 -180 51.4801 -177.691 -21.9043 -38.3352 -7.69653 4.99549 -20.146 -8.186 
-256.457 48.6609 -238.612 -16.3791 21.7596 41.6587 0 0 0 2.00108 45.9399 0.401373 -4.3502 -2.61529 2.4746 5.73172 -22.6608 -3.58552 -0.463164 -9.20896 -2.75042 -9.39407 3.64046 -17.9435 -8.45382 13.1902 -82.6565 -14.4467 20.7474 4.17559 3.68598 0.238528 7.40262 37.4853 14.7183 29.4757 -33.0267 18.7709 63.9657 11.9922 11.1872 -3.17776 -9.13472 -0.249025 3.11654 112.244 -52.8112 113.165 180 52.4548 165.708 18.6567 -38.6825 6.59973 1.56229 -21.4128 -1.82106 -116.67 -56.0347 -120.135 -180 51.3072 -177.517 -21.8304 -38.7403 -7.75728 4.93954 -19.8542 -8.12169 
-256.386 48.6304 -238.41 -16.2708 21.7194 41.6248 0 0 0 1.87589 46.2214 0.570432 -4.40344 -2.89727 2.66368 6.70269 -23.5603 -4.27428 -1.99695 -9.35734 -3.13232 -10.0377 3.73368 -17.7648 -8.08787 13.3553 -82.9027 -14.6845 21.3123 4.19486 3.52273 0.212054 6.88748 37.8237 14.752 29.2975 -32.3623 19.2073 62.9096 10.9293 11.3817 -2.27673 -8.6783 -0.216773 2.8563 111.736 -52.7813 112.471 -180 52.3523 165.27 18.6729 -38.8653 6.63922 1.54949 -21.3211 -1.67572 -116.245 -56.3193 -119.57 -180 51.1854 -177.787 -21.7085 -39.399 -7.85457 4.93408 -19.8191 -8.09072 
-256.322 48.627 -238.234 -16.3635 21.6281 41.6279 0 0 0 1.84592 46.152 0.663298 -4.23149 -2.67376 2.6878 6.51735 -24.0298 -4.76773 -1.59656 -9.90872 -3.70604 -10.2274 3.7731 -17.7801 -9.17081 13.2481 -82.7821 -14.8332 22.4608 4.80374 3.33497 0.214407 7.35496 37.4761 14.6423 29.3195 -31.5102 18.8877 63.2113 11.3811 11.4668 -3.01223 -8.8667 -0.247971 3.19751 111.457 -52.576 112.036 180 52.3117 165.262 18.6237 -39.1328 6.67065 1.58304 -21.4523 -2.18254 -115.802 -56.5296 -119.072 180 50.9014 -177.993 -21.2963 -40.3449 -7.90267 4.7913 -18.571 -5.55548 
-256.28 48.7074 -238.014 -16.5359 21.7252 41.7067 0 0 0 1.66129 46.2114 0.87493 -4.06031 -2.95682 2.82953 6.3739 -24.2749 -5.36663 -1.60619 -10.4982 -4.30458 -9.76114 3.74395 -18.1246 -10.7721 13.2636 -82.5539 -14.7992 23.2776 4.87494 2.97585 0.182209 7.00605 37.5507 14.5938 29.1606 -31.128 18.8951 63.0057 11.2895 12.1655 -2.89018 -8.54356 -0.202419 2.70944 111.282 -52.3713 111.753 -180 52.3869 164.959 18.7428 -39.1383 6.71501 1.58863 -21.4494 -2.29462 -115.669 -56.842 -118.987 -180 51.0198 -177.965 -21.4305 -39.9473 -7.86861 4.98168 -20.0963 -8.24875 
